PathFileType	4	(X/Y/Z)	C:/Users/beibeiliu/ov580/test_trc/User3\out8_training_dense_left.trc
DataRate	CameraRate	NumFrames	NumMarkers	Units	OrigDataRate	OrigDataStartFrame	OrigNumFrames
120	120	20	19	mm	120	376	500
Frame#	Time	ThumbCMC			ThumbMCP			ThumbIP			ThumbTip			IndexMCP			IndexPIP			IndexTip			MiddleMCP			MiddlePIP			MiddleTip			RingMCP			RingPIP			RingTip			PinkyMCP			PinkyPIP			PinkyTip			BackHand1			BackHand2			BackHand3	
		X0	Y0	Z0	X1	Y1	Z1	X2	Y2	Z2	X3	Y3	Z3	X4	Y4	Z4	X5	Y5	Z5	X6	Y6	Z6	X7	Y7	Z7	X8	Y8	Z8	X9	Y9	Z9	X10	Y10	Z10	X11	Y11	Z11	X12	Y12	Z12	X13	Y13	Z13	X14	Y14	Z14	X15	Y15	Z15	X16	Y16	Z16	X17	Y17	Z17	X18	Y18	Z18	
375	3.125	-92.7315	35.5781	51.1262	-75.0227	34.6478	17.1485	-71.2738	33.7607	-14.448	-92.5705	34.8253	-37.853	-93.3807	79.5001	-10.0619	-80.0258	56.4972	-30.0946	-83.6288	34.7457	-1.67865	-111.184	78.5141	-19.8652	-97.4922	52.0641	-38.8913	-102.741	30.8639	-7.11764	-128.025	70.1472	-19.7913	-115.022	48.6886	-40.2313	-115.422	22.3575	-13.6475	-149.76	65.2586	-15.5707	-140.29	65.4075	-37.7226	-125.923	49.1441	-56.0121	-147.537	68.0053	31.1771	-154.35	50.1289	57.8547	-121.074	63.1269	57.1693	
376	3.13333	-93.1867	36.9532	50.1642	-73.033	34.898	17.4617	-74.1284	36.1455	-12.1512	-88.6977	34.2973	-34.6233	-91.9715	80.6776	-12.5266	-77.3541	55.5371	-28.7825	-82.6656	35.8851	-6.07109	-111.393	79.0623	-20.8494	-94.5131	53.7378	-37.0053	-100.712	30.9417	-5.43742	-127.505	70.0374	-24.7613	-119.434	47.3587	-40.5104	-111.144	24.7073	-18.7502	-146.48	68.2478	-13.6654	-141.243	68.4948	-36.8133	-123.742	56.0634	-56.9266	-149.28	65.6544	36.3711	-152.053	51.6998	57.3435	-119.189	65.8272	53.0977	
377	3.14167	-89.5523	35.3081	51.4983	-74.3964	35.8893	18.4003	-73.1392	36.6243	-11.1016	-86.2802	35.2887	-33.2566	-87.1521	82.1044	-9.78703	-74.691	58.9428	-27.6965	-82.9852	36.5727	-6.45922	-104.844	80.7487	-21.886	-93.9324	56.6413	-38.0293	-103.08	31.0016	-6.97011	-123.24	72.1254	-22.0564	-116.732	51.0662	-39.6974	-110.694	25.7857	-19.0692	-145.988	67.431	-10.5874	-142.099	70.5858	-35.1276	-127.219	63.9785	-56.3349	-144.811	65.5855	36.2656	-154.361	49.7682	55.9946	-119.14	65.0241	55.5703	
378	3.15	-88.1904	37.1339	48.8977	-72.1189	36.1106	17.0014	-67.7374	36.1837	-13.1972	-87.4367	37.5674	-33.8743	-87.8657	83.3758	-11.1321	-73.9031	58.384	-28.7999	-84.8366	36.7384	-7.74254	-106.329	81.6671	-19.6507	-97.9118	55.184	-38.0559	-101.913	31.4866	-9.06166	-127.252	73.84	-18.6146	-117.086	54.0232	-41.8709	-110.696	26.3097	-19.2692	-145.781	70.1005	-12.3191	-140.903	73.0977	-36.4445	-127.896	72.5549	-54.9447	-146.46	65.4796	35.2335	-153.946	53.153	56.8439	-116.452	64.7254	57.9874	
379	3.15833	-84.5384	35.6146	49.7095	-67.6965	34.4244	18.5235	-69.2582	37.0103	-10.1671	-83.1819	37.5235	-37.3201	-87.1208	83.5823	-7.81964	-76.6768	63.3257	-32.2938	-80.8265	37.836	-7.76283	-103.626	84.6314	-20.9595	-96.45	62.8439	-41.4174	-97.8642	34.0374	-13.9017	-120.3	78.4624	-21.6626	-116.5	60.2625	-42.5842	-108.601	32.1584	-28.1676	-141.477	72.1931	-12.4915	-139.109	76.7608	-34.2592	-132.201	74.0879	-57.833	-145.346	65.4705	34.0856	-150.333	52.7478	56.5103	-111.56	63.9637	56.0019	
380	3.16667	-85.949	36.2882	46.8559	-67.2807	34.637	15.3519	-65.505	37.0568	-15.0962	-85.6647	38.9401	-34.1184	-81.4863	84.0689	-11.2865	-74.1591	60.9429	-32.0114	-76.3425	37.163	-8.95453	-103.805	84.1222	-18.1361	-94.088	63.2267	-43.2715	-96.7096	31.9311	-12.9817	-120.901	79.0469	-20.856	-111.218	60.4342	-45.03	-106.055	32.0726	-28.6056	-142.236	71.7148	-13.7593	-138.071	76.2685	-34.0865	-130.681	74.172	-59.3552	-140.731	70.2732	31.5048	-144.464	53.346	55.8099	-111.728	65.2888	52.1026	
381	3.175	-87.1137	36.2377	48.3108	-68.7072	34.9971	16.5375	-65.3794	37.8817	-15.548	-83.8147	36.6118	-35.1988	-83.3511	83.2593	-11.3168	-68.5912	64.6843	-29.5331	-78.9742	36.3133	-6.69793	-103.444	84.9455	-21.2537	-91.3705	63.8353	-41.9453	-93.6838	32.8674	-17.6579	-123.788	79.2926	-19.0055	-110.925	64.0878	-43.9289	-105.201	33.729	-33.6941	-142.15	67.674	-12.0745	-139.188	72.8879	-36.9022	-127.762	71.782	-57.9166	-141.415	68.1281	33.4589	-148.097	50.3453	58.2109	-113.876	62.9256	56.1862	
382	3.18333	-82.8715	35.6869	52.0924	-71.5716	35.812	18.8056	-64.7353	35.6596	-11.3364	-79.6857	36.5553	-36.4995	-84.0383	85.0265	-5.6984	-68.8702	63.6414	-29.2248	-72.5198	37.9451	-8.40791	-102.617	89.3923	-18.1782	-87.7943	72.3618	-42.4789	-89.3576	35.4664	-24.9811	-122.577	81.1893	-20.7033	-112.21	67.8611	-44.0779	-102.057	34.681	-36.9317	-144.866	65.7147	-17.8044	-137.638	67.8594	-35.8888	-130.892	64.0947	-62.6291	-138.164	66.214	33.0734	-147.075	48.0357	56.0328	-117.55	63.2835	56.2593	
383	3.19167	-86.8581	39.635	48.2987	-67.8503	34.3259	19.3177	-68.2214	36.9187	-12.1053	-80.2126	35.2604	-37.2436	-83.3972	88.2117	-7.273	-69.9608	70.3793	-30.3517	-68.7356	39.3662	-12.6073	-112.841	89.6455	-14.7831	-98.147	84.3894	-44.4132	-80.7887	45.7381	-41.4501	-123.577	78.9539	-18.2017	-112.22	71.4999	-45.0684	-97.3878	42.0514	-44.6408	-143.023	58.2821	-18.6446	-132.944	58.6594	-42.5485	-122.003	47.5807	-63.9448	-139.583	61.8722	32.8306	-151.147	45.718	56.9462	-113.422	63.171	57.5011	
384	3.2	-81.5235	35.4708	51.9827	-68.3022	34.2658	15.9567	-61.2679	33.0431	-12.8846	-74.6974	30.8961	-36.8629	-85.7305	85.7238	-11.3547	-69.0256	73.1495	-33.8615	-68.4361	38.8557	-25.4228	-112.566	90.8336	-12.4532	-103.238	92.2826	-44.8313	-83.5532	60.3278	-60.4253	-126.715	76.1596	-17.4849	-118.897	72.6933	-47.4152	-102.361	42.9525	-56.1242	-140.434	51.4731	-17.1322	-127.909	48.6941	-43.0493	-112.327	34.3958	-60.489	-141.67	59.1665	29.3645	-150.007	44.4317	53.9966	-115.122	63.596	52.5118	
385	3.20833	-84.606	34.8911	47.0224	-68.1526	32.9082	14.1786	-63.0112	29.3019	-12.6135	-70.1096	27.0767	-39.6834	-90.7945	82.9987	-8.93866	-69.3736	76.3069	-35.7855	-63.0211	41.3049	-35.4128	-114.533	91.1249	-12.5109	-108.665	96.5618	-45.3523	-91.8484	75.7437	-70.3186	-130.221	72.0443	-17.396	-119.548	74.6673	-46.2331	-102.653	46.2306	-63.1274	-140.467	46.6815	-19.1185	-128.164	42.3799	-40.3924	-109.371	23.3542	-53.4676	-143.064	55.7989	30.5935	-145.449	39.8676	57.9216	-115.056	58.3068	52.1257	
386	3.21667	-85.9488	32.6947	49.1005	-69.2739	28.5351	13.6116	-61.9617	25.6904	-14.1694	-69.3521	22.3422	-39.5453	-91.9547	84.7152	-11.9801	-77.6131	76.5608	-40.6232	-62.8336	49.9695	-46.3956	-121.363	88.9371	-12.4987	-114.395	100.055	-40.9437	-100.635	84.8894	-73.5004	-131.694	71.9288	-17.7378	-123.838	73.0422	-45.2867	-110.848	50.4728	-64.5273	-138.728	43.9823	-17.3495	-125.397	32.6701	-42.8711	-111.877	14.6946	-48.3497	-143.896	52.9293	28.5766	-147.137	38.4204	57.2936	-116.759	59.1068	51.9652	
387	3.225	-81.075	33.5792	46.4766	-67.2998	25.4186	15.0932	-61.2054	22.8397	-13.6549	-67.3997	18.1764	-38.1811	-93.649	85.1956	-11.1117	-79.701	85.0603	-39.9779	-68.7854	61.1073	-54.1463	-122.957	89.2525	-13.0892	-119.996	99.8475	-39.0016	-109.647	91.6645	-72.0256	-135.357	68.5829	-16.6038	-129.25	69.4027	-47.3502	-111.814	45.8811	-65.4682	-142.015	40.4237	-18.9111	-128.735	26.6111	-42.6384	-114.191	9.82118	-46.7429	-143.44	51.2728	30.7706	-149.389	39.1837	56.2025	-116.131	56.0362	52.3719	
388	3.23333	-82.5038	34.8846	45.0732	-67.65	24.2508	18.4464	-56.4625	21.3869	-11.7161	-62.5459	15.7834	-37.9542	-98.9362	85.3286	-8.65027	-86.1106	90.2385	-35.9195	-72.7718	69.0429	-59.506	-123.993	88.9176	-11.6883	-124.456	98.2791	-39.5975	-113.053	91.4261	-71.7005	-136.953	65.7315	-18.0984	-130.807	64.0945	-48.9838	-111.489	41.3499	-61.266	-140.582	38.5327	-20.2598	-132.476	24.5354	-39.3129	-113.463	8.21105	-44.6849	-143.025	50.5949	33.6869	-145.87	37.309	62.1996	-114.989	58.7534	53.7684	
389	3.24167	-85.4603	32.1199	49.5138	-69.7249	25.6499	17.498	-55.8155	22.0224	-10.788	-61.0393	17.7941	-37.64	-96.132	84.7638	-5.80721	-88.0959	92.985	-34.437	-72.559	78.8811	-58.6089	-126.601	84.0387	-12.1782	-119.87	95.324	-46.1591	-107.677	81.8512	-74.042	-137.956	62.5451	-20.1493	-130.462	54.1062	-50.4113	-115.155	28.3466	-55.2855	-144.498	35.4446	-21.1951	-130.638	21.3251	-39.9036	-114.016	4.70699	-40.9248	-144.975	49.4747	33.0784	-146.682	36.0516	61.4502	-116.495	57.9516	50.9699	
390	3.25	-79.9174	33.8122	47.2002	-67.6933	26.9746	16.8566	-55.6822	22.3184	-9.47315	-56.993	18.8434	-34.2219	-96.284	83.4565	-6.16175	-89.5053	92.9548	-35.2127	-76.0688	81.4996	-59.1763	-121.613	82.3719	-17.8723	-115.203	86.0793	-49.2925	-101.031	65.4643	-74.3339	-136.188	58.643	-25.4197	-123.836	43.2221	-49.1764	-109.454	13.0061	-41.8874	-146.732	35.1529	-18.6026	-134.259	21.5441	-39.5628	-119.451	3.52763	-44.6975	-142.734	53.3928	31.2731	-150.393	38.5104	58.8699	-116.027	58.519	51.754	
391	3.25833	-84.7238	30.9718	48.4192	-66.4776	26.8921	18.0082	-54.3845	25.0136	-11.9794	-56.4279	20.7305	-35.2106	-95.9345	82.6763	-6.25662	-84.2441	94.4213	-34.2789	-73.9175	82.3617	-64.1915	-117.748	77.7353	-21.5494	-107.093	74.6065	-52.8853	-95.1747	41.4876	-70.9408	-128.905	56.1584	-26.5815	-123.71	34.7227	-46.578	-107.758	6.69553	-29.7031	-148.847	35.6997	-18.9552	-139.964	24.235	-41.4024	-125.239	7.96518	-51.9303	-145.928	54.0908	29.7989	-144.782	39.1524	61.8789	-115.984	56.2545	52.071	
392	3.26667	-81.7547	31.629	46.873	-63.1806	26.0923	17.4313	-55.6238	23.5014	-7.10416	-52.2552	19.8087	-29.5733	-96.1161	82.4118	-9.94708	-84.1196	91.7429	-37.3469	-74.417	82.1594	-66.4338	-112.997	71.4049	-24.3161	-106.001	60.2033	-55.3586	-89.4849	23.2462	-59.9885	-127.096	50.7487	-26.1854	-115.496	28.8842	-43.9688	-104.374	4.83935	-22.2312	-149.112	39.0942	-21.2699	-144.847	32.1807	-39.7901	-134.61	19.4706	-59.457	-140.942	53.1338	30.5254	-145.013	41.1418	56.3225	-115.226	57.3112	49.3778	
393	3.275	-81.9539	29.2447	47.9571	-61.0954	25.4161	18.463	-51.6343	25.386	-11.551	-53.5926	21.447	-34.2685	-94.7784	80.1344	-13.0101	-82.1929	88.2508	-41.3937	-74.3755	77.1672	-69.3987	-110.822	64.968	-28.1361	-98.352	45.558	-54.3561	-85.9036	10.5458	-46.5883	-127.061	48.1976	-25.8033	-115.233	22.1134	-40.6938	-103.625	4.02994	-12.1014	-149.717	41.6626	-20.5327	-145.575	38.4809	-44.6145	-142.239	29.6672	-68.3432	-143.11	53.0849	28.3175	-142.985	39.8186	55.3006	-114.579	55.0153	50.7647	
394	3.28333	-83.0304	29.5749	46.525	-60.8122	24.3051	19.0794	-52.0034	25.802	-11.0104	-46.6107	21.236	-32.5717	-90.7344	79.8204	-12.409	-78.941	85.1532	-44.0188	-71.0184	71.793	-66.0616	-106.909	61.9827	-27.4343	-94.8316	39.269	-50.3871	-87.8053	2.56059	-29.8954	-123.095	47.7973	-27.1076	-110.481	19.1445	-38.0478	-107.438	2.54033	-9.41461	-150.388	43.7759	-19.2317	-147.55	42.7229	-42.0892	-146.508	37.1739	-67.5227	-138.894	54.4365	27.3328	-142.132	41.3129	54.0313	-110.705	56.4659	49.434	
